<?xml version="1.0" encoding="UTF-8"?>
<svg width="362px" height="433px" viewBox="0 0 362 433" version="1.1" xmlns="http://www.w3.org/2000/svg" xmlns:xlink="http://www.w3.org/1999/xlink">
    <title>lightbulb</title>
    <defs>
        <linearGradient x1="84.7483899%" y1="0%" x2="15.2516101%" y2="100%" id="linearGradient-1">
            <stop stop-color="#000051" offset="0%"></stop>
            <stop stop-color="#6F74DD" offset="100%"></stop>
        </linearGradient>
    </defs>
    <g id="Page-1" stroke="none" stroke-width="1" fill="none" fill-rule="evenodd">
        <g id="lightbulb" transform="translate(0.965532, 0.000000)" fill="url(#linearGradient-1)" fill-rule="nonzero">
            <path d="M211.363468,398.8 C220.563468,398.8 228.163468,406 228.163468,415.6 C228.163468,424.8 220.563468,432.4 211.363468,432.4 L211.363468,432.4 L148.963468,432.4 C139.763468,432.4 132.163468,424.8 132.163468,415.6 C132.163468,406.4 139.763468,398.8 148.963468,398.8 L148.963468,398.8 Z M211.363468,412 L148.963468,412 C146.963468,412 145.763468,413.2 145.763468,415.2 C145.763468,417.2 147.363468,418.4 148.963468,418.4 L148.963468,418.4 L211.363468,418.4 C212.963468,418.4 214.563468,417.2 214.563468,415.2 C214.563468,413.2 212.963468,412 211.363468,412 L211.363468,412 Z M224.563468,358.4 C233.763468,358.4 241.363468,366 241.363468,375.2 C241.363468,384.4 233.763468,391.6 224.163468,392 L224.163468,392 L135.763468,392 C126.563468,392 118.963468,384.4 118.963468,375.2 C118.963468,366 126.563468,358.4 135.763468,358.4 L135.763468,358.4 Z M224.163468,371.6 L135.763468,371.6 C133.763468,371.6 132.563468,372.8 132.563468,374.8 C132.563468,376.8 134.163468,378 135.763468,378 L135.763468,378 L224.563468,378 C226.163468,378 227.363468,376.8 227.363468,374.8 C227.363468,372.8 225.763468,371.6 224.163468,371.6 L224.163468,371.6 Z M180.563468,93.2 C241.763468,93.2 291.763468,143.2 291.763468,204.4 C291.763468,235.6 278.163468,265.6 254.963468,286.8 L254.963468,286.8 L253.763468,288 C236.163468,305.6 238.163468,343.2 238.163468,343.6 C238.163468,345.6 237.363468,347.6 236.163468,348.8 C234.963468,350 233.363468,350.8 231.363468,350.8 L231.363468,350.8 L129.363468,350.8 C127.763468,350.8 125.763468,350 124.563468,348.8 C122.963468,347.2 122.563468,345.6 122.563468,343.6 C122.963468,343.2 124.563468,305.6 106.963468,288 C83.3634677,267.2 69.3634677,236.4 69.3634677,204.4 C69.3634677,143.2 119.363468,93.2 180.563468,93.2 Z M180.163468,106.4 C126.163468,106.4 82.5634677,150 82.5634677,204 C82.5634677,232.4 94.9634677,259.2 116.163468,277.6 C132.963468,294.8 135.763468,323.6 136.163468,336.8 L136.163468,336.8 L224.563468,336.8 C224.963468,323.6 227.763468,296 243.363468,279.2 C243.363468,278.8 244.163468,278 244.563468,277.6 C265.763468,259.2 277.763468,232.4 277.763468,204 C277.763468,150 234.163468,106.4 180.163468,106.4 Z M180.163468,121.6 C228.163468,121.6 266.963468,160.4 266.563468,208 C266.563468,211.6 263.363468,214.8 259.763468,214.8 C256.163468,214.8 252.963468,211.6 252.963468,208 C252.963468,168 220.563468,135.2 180.163468,135.2 C176.563468,135.2 173.363468,132 173.363468,128.4 C173.363468,124.8 176.563468,121.6 180.163468,121.6 Z M0.963467666,106.8 C2.56346767,103.6 6.96346767,102.4 10.1634677,104 L10.1634677,104 L50.5634677,126 C53.7634677,127.6 54.9634677,132 53.3634677,135.2 C52.1634677,137.6 49.7634677,138.8 47.3634677,138.8 C46.1634677,138.8 45.3634677,138.4 44.1634677,138 L44.1634677,138 L3.76346767,116 C0.163467666,114.4 -1.03653233,110 0.963467666,106.8 Z M350.563468,104 C353.763468,102.4 358.163468,103.6 359.763468,106.8 C361.363468,110 360.163468,114.4 356.963468,116 L356.963468,116 L316.163468,138 C315.363468,138.4 314.163468,138.8 312.963468,138.8 C310.563468,138.8 308.163468,137.6 306.963468,135.2 C305.363468,132 306.563468,127.6 309.763468,126 L309.763468,126 Z M284.163468,36 C286.163468,33.2 290.163468,32 293.363468,34.4 C296.563468,36.4 297.363468,40.8 294.963468,43.6 L294.963468,43.6 L269.363468,82 C268.163468,84 266.163468,85.2 263.763468,85.2 C262.563468,85.2 261.363468,84.8 260.163468,84 C256.963468,82 256.163468,77.6 258.563468,74.4 L258.563468,74.4 Z M70.1634677,32 C73.3634677,30 77.7634677,30.8 79.7634677,34 L79.7634677,34 L104.563468,72.8 C106.563468,76 105.763468,80.4 102.563468,82.4 C101.363468,83.2 100.163468,83.6 98.9634677,83.6 C96.5634677,83.6 94.5634677,82.8 92.9634677,80.4 L92.9634677,80.4 L68.1634677,41.6 C66.1634677,38.4 66.9634677,34 70.1634677,32 Z M180.163468,0 C183.763468,0 186.963468,3.2 186.963468,6.8 L186.963468,6.8 L186.963468,53.2 C186.963468,56.8 184.163468,60 180.163468,60 C176.563468,60 173.363468,56.8 173.363468,53.2 L173.363468,53.2 L173.363468,6.8 C173.363468,3.2 176.563468,0 180.163468,0 Z" id="Combined-Shape"></path>
        </g>
    </g>
</svg>