<svg width="20" height="20" viewBox="0 0 20 20" fill="none" xmlns="http://www.w3.org/2000/svg"><path d="M8.82.521a1.596 1.596 0 012.36 0l.362.398c.42.46 1.07.635 1.664.445l.512-.163a1.596 1.596 0 012.043 1.18l.115.525a1.596 1.596 0 001.218 1.218l.525.115a1.596 1.596 0 011.18 2.043l-.163.513a1.596 1.596 0 00.446 1.663l.397.362a1.596 1.596 0 010 2.36l-.397.362c-.461.42-.635 1.07-.446 1.664l.163.512a1.596 1.596 0 01-1.18 2.043l-.525.115a1.596 1.596 0 00-1.218 1.218l-.115.525a1.596 1.596 0 01-2.043 1.18l-.512-.163a1.596 1.596 0 00-1.664.445l-.362.398a1.596 1.596 0 01-2.36 0l-.362-.398a1.596 1.596 0 00-1.663-.445l-.513.163a1.596 1.596 0 01-2.043-1.18l-.115-.525a1.596 1.596 0 00-1.218-1.218l-.525-.115a1.596 1.596 0 01-1.18-2.043l.164-.512a1.596 1.596 0 00-.446-1.664L.52 11.18a1.596 1.596 0 010-2.36l.398-.362c.46-.42.635-1.07.446-1.663L1.2 6.282a1.596 1.596 0 011.18-2.043l.525-.115a1.596 1.596 0 001.218-1.218l.115-.525A1.596 1.596 0 016.282 1.2l.513.163c.594.19 1.244.015 1.663-.445L8.821.52z" fill="currentColor"/><path d="M6.66 7.464L5.012 9.111l3.85 3.85 5.483-5.481-1.966-1.966L8.544 9.35 6.66 7.464z" fill="#fff"/><path opacity=".5" d="M11.25 15.55l-1.646-1.848 1.646-1.646 1.887 1.887-1.887 1.606z" fill="#fff"/></svg>
